<svg xmlns="http://www.w3.org/2000/svg" width="124" height="235" viewBox="0 0 124 235">
  <g fill="none" fill-rule="evenodd" transform="translate(-98 -21)">
    <path fill="#8F755C" d="M115.488806,164.474947 L137.894379,194.196625 C138.224854,194.63501 138.688142,194.596048 138.920227,194.097748 L155.079773,159.402252 C155.309082,158.909912 155.074976,158.361867 154.550683,158.191472 L115.5,145.5 L100.050756,168.673866 C99.7513218,169.123017 99.9268086,169.36586 100.453304,169.20039 L115.488806,164.474947 Z"/>
    <path fill="#3B1F24" d="M160.015332,92.5 L123.204917,92.5 C122.382942,92.5 121.746748,93.171289 121.798505,93.9993661 L125.534377,153.771363 L121.886924,183.698203 C121.786549,184.521762 122.110995,185.724243 122.612072,186.380088 L147.604614,219.092082 C148.101546,219.742502 148.756235,219.65876 149.057645,218.892921 L160.015332,191.050979 L170.973019,218.892921 C171.274429,219.65876 171.929118,219.742502 172.426051,219.092082 L197.418592,186.380088 C197.91967,185.724243 198.244115,184.521762 198.143741,183.698203 L194.496287,153.771363 L198.23216,93.9993661 C198.283916,93.171289 197.647722,92.5 196.825747,92.5 L160.015332,92.5 Z"/>
    <path fill="#E1E2BE" d="M125,154 C124.673166,148.63993 120.343218,98.4834132 120.343218,98.4834132 C120.153664,96.2834348 121.299504,93.2672424 123.03027,91.8986052 C123.03027,91.8986052 131,82 160.25,82 C189.5,82 197.474919,91.9024026 197.474919,91.9024026 C199.145625,93.337016 200.35036,96.2807168 200.165147,98.4847531 L195.5,154 L125,154 Z"/>
    <g transform="matrix(-1 0 0 1 205 167)">
      <polyline stroke="#2B3136" stroke-width="6" points="13 0 9.5 40.5 14 77"/>
      <path fill="#000000" d="M17.6515016,88.681687 L17.6515016,72.181687 L11.1515016,72.181687 L11.1515016,81.5000442 L1.24516605,87.807551 L17.6515016,88.681687 Z" transform="rotate(-9 9.448 80.432)"/>
    </g>
    <g transform="translate(115 167)">
      <polyline stroke="#2B3136" stroke-width="6" points="13 0 9.5 40.5 14 77"/>
      <path fill="#000000" d="M17.6515016,88.681687 L17.6515016,72.181687 L11.1515016,72.181687 L11.1515016,81.5000442 L1.24516605,87.807551 L17.6515016,88.681687 Z" transform="rotate(-9 9.448 80.432)"/>
    </g>
    <path fill="#2B3136" d="M195.5,153.5 L195.5,169.5 L125,169.5 C125,169.5 125.049988,160.596236 125,153.5 L195.5,153.5 Z"/>
    <g transform="translate(136 152)">
      <rect width="25" height="6" x="12.5" y="3" fill="#8B7366"/>
      <rect width="7.5" height="6" y="3" fill="#8B7366"/>
      <rect width="7.5" height="6" x="42.5" y="3" fill="#8B7366"/>
      <path fill="#CA8E37" d="M15,1.49554521 C15,0.669578397 15.6654358,0 16.5032506,0 L33.4967494,0 C34.3269718,0 35,0.679554462 35,1.49554521 L35,10.5044548 C35,11.3304216 34.3345642,12 33.4967494,12 L16.5032506,12 C15.6730282,12 15,11.3204455 15,10.5044548 L15,1.49554521 Z M19.5,4.49857602 L19.5,7.50142398 C19.5,8.33497024 20.1744555,9 21.0064385,9 L28.9935615,9 C29.8284594,9 30.5,8.32906466 30.5,7.50142398 L30.5,4.49857602 C30.5,3.66502976 29.8255445,3 28.9935615,3 L21.0064385,3 C20.1715406,3 19.5,3.67093534 19.5,4.49857602 Z"/>
    </g>
    <g transform="translate(136 89.5)">
      <path fill="#000000" fill-opacity=".2" d="M27.5107988,27.1139982 C27.9997775,26.7192409 28.3938819,26.211659 28.6535428,25.6308215 L42.0536755,13.9844528 C42.6792463,13.4407545 43.2444583,12.3320042 43.3171043,11.4965758 L44.0556392,3.00342417 C44.1278408,2.17310593 43.8195731,2.06287552 43.3660107,2.75468879 C43.3660107,2.75468879 38.6003053,10.1193927 36.1863717,13 C33.7724382,15.8806073 28.1775197,20.9132856 28.1775197,20.9132856 C27.9336726,21.1356182 27.7083687,21.4482627 27.5260471,21.7967964 C26.8373066,21.5546958 25.9579814,21.5 25,21.5 C24.1142175,21.5 23.2956821,21.5467621 22.6328748,21.7451947 C22.4556023,21.4174638 22.2406016,21.124588 22.0088521,20.9132856 C22.0088521,20.9132856 16.4139336,15.8806073 14,13 C11.5860664,10.1193927 6.82036104,2.75468879 6.82036104,2.75468879 C6.36679866,2.06287552 6.05853095,2.17310593 6.13073254,3.00342417 L6.86926746,11.4965758 C6.94191341,12.3320042 7.50712539,13.4407545 8.13269627,13.9844528 L21.2445213,25.3802465 C21.5611509,26.2414852 22.1655814,26.9636645 22.9412304,27.430202 C21.3896705,29.3692193 19.7727458,33.2073666 18.8064939,37.2437869 C18.1788998,39.8654984 17.334901,45.5819406 21.6724953,53.4377799 C22.2746215,48.4345531 23.5825114,45.6293368 24.6627787,43.2487676 C25.9496974,46.2415946 27.8043027,49.4527621 28.5910135,55.9897504 C33.4846857,47.1267953 32.5324866,40.6775073 31.8244351,37.7196933 C30.8070542,33.4696866 29.1502872,29.4145135 27.5107988,27.1139982 Z"/>
      <path fill="#F12F5D" d="M-0.456489382,9.45308866 C-1.06573697,8.88435425 -0.910407954,8.59616574 -0.110431979,8.80679072 C-0.110431979,8.80679072 8.3591261,11.090953 12.0805309,11.6164246 C15.8019356,12.1418961 23.3272894,12.1381738 23.3272894,12.1381738 C24.1489009,12.1433023 25.2597152,12.6414231 25.8172933,13.2606763 L27.214715,14.8126704 C27.7682947,15.4274829 27.5550405,15.9375042 26.7165748,15.9522177 L8.37900196,16.2740081 C7.55030705,16.2885501 6.38837392,15.8427887 5.77537675,15.2705541 L-0.456489382,9.45308866 Z" transform="rotate(42 13.343 12.506)"/>
      <path fill="#F12F5D" d="M21.0435106,9.45308866 C20.434263,8.88435425 20.589592,8.59616574 21.389568,8.80679072 C21.389568,8.80679072 29.8591261,11.090953 33.5805309,11.6164246 C37.3019356,12.1418961 44.8272894,12.1381738 44.8272894,12.1381738 C45.6489009,12.1433023 46.7597152,12.6414231 47.3172933,13.2606763 L48.714715,14.8126704 C49.2682947,15.4274829 49.0550405,15.9375042 48.2165748,15.9522177 L29.879002,16.2740081 C29.050307,16.2885501 27.8883739,15.8427887 27.2753768,15.2705541 L21.0435106,9.45308866 Z" transform="scale(-1 1) rotate(42 0 -78.264)"/>
      <path fill="#7B1D33" d="M24,26 C26.209139,26 28,24.209139 28,22 C28,19.790861 26.209139,19.5 24,19.5 C21.790861,19.5 20,19.790861 20,22 C20,24.209139 21.790861,26 24,26 Z"/>
      <path fill="#A82D4B" d="M20.9326538,51.4468648 C25.8076776,43.9127373 25.3644936,38.1513456 24.9213096,35.4922418 C23.9345151,29.5714746 21.5612119,23.9694584 19.6031019,23.9694584 C18.27355,27.0717462 17.387182,30.617218 17.387182,35.4922418 C17.387182,40.3672655 20.4894699,42.5831854 20.9326538,51.4468648 Z" transform="scale(-1 1) rotate(-4 0 647.15)"/>
      <path fill="#F12F5D" d="M26.5088275,54 C32.0088275,45.5 31.5088275,39 31.0088275,36 C29.8955263,29.3201927 27.2179665,23 25.0088275,23 C23.5088275,26.5 22.5088275,30.5 22.5088275,36 C22.5088275,41.5 26.0088275,44 26.5088275,54 Z" transform="rotate(-4 26.903 38.5)"/>
    </g>
    <g transform="translate(119 78.5)">
      <path fill="#79313D" d="M62.5362554 5.72143556C74.6402484 8.64091848 78.4749186 13.4024026 78.4749186 13.4024026 80.1456249 14.837016 81.3503599 17.7807168 81.1651468 19.9847531L76.5 75.5 65.5 75.5 62.5362554 5.72143556zM17 75.5L6 75.5 6 75.5C5.67316647 70.13993 1.34321805 19.9834132 1.34321805 19.9834132 1.15366396 17.7834348 2.29950357 14.7672424 4.0302696 13.3986052 4.0302696 13.3986052 8.47813345 7.87424664 22.9234068 5.07955457L17 75.5z"/>
      <path fill="#000000" fill-opacity=".2" d="M5.9513855,14.6482239 C5.4259498,14.0140773 5.56593147,13.1398618 6.26183278,12.6970155 L25.7381672,0.302984495 C26.4350582,-0.140491596 27.0277817,0.180651908 27.0609717,0.993807775 L28.9652725,47.6491773 L12.3543438,115.55151 C12.1586451,116.351489 11.6471893,116.431583 11.2091979,115.72593 L3.79080207,103.77407 C3.35405415,103.070421 3.15280744,101.837834 3.33707067,101.03936 L19.5,31 L5.9513855,14.6482239 Z"/>
      <path fill="#5C232C" d="M2.9513855,14.6482239 C2.4259498,14.0140773 2.56593147,13.1398618 3.26183278,12.6970155 L22.7381672,0.302984495 C23.4350582,-0.140491596 24.0277817,0.180651908 24.0609717,0.993807775 L25.9652725,47.6491773 L9.35434383,115.55151 C9.15864514,116.351489 8.64718933,116.431583 8.20919793,115.72593 L0.790802071,103.77407 C0.354054147,103.070421 0.152807437,101.837834 0.337070667,101.03936 L16.5,31 L2.9513855,14.6482239 Z"/>
      <path fill="#000000" fill-opacity=".2" d="M56.9513855,14.6482239 C56.4259498,14.0140773 56.5659315,13.1398618 57.2618328,12.6970155 L76.7381672,0.302984495 C77.4350582,-0.140491596 78.0277817,0.180651908 78.0609717,0.993807775 L79.9652725,47.6491773 L63.3543438,115.55151 C63.1586451,116.351489 62.6471893,116.431583 62.2091979,115.72593 L54.7908021,103.77407 C54.3540541,103.070421 54.1528074,101.837834 54.3370707,101.03936 L70.5,31 L56.9513855,14.6482239 Z" transform="matrix(-1 0 0 1 134.233 0)"/>
      <path fill="#5C232C" d="M59.9513855,14.6482239 C59.4259498,14.0140773 59.5659315,13.1398618 60.2618328,12.6970155 L79.7381672,0.302984495 C80.4350582,-0.140491596 81.0277817,0.180651908 81.0609717,0.993807775 L82.9652725,47.6491773 L66.3543438,115.55151 C66.1586451,116.351489 65.6471893,116.431583 65.2091979,115.72593 L57.7908021,103.77407 C57.3540541,103.070421 57.1528074,101.837834 57.3370707,101.03936 L73.5,31 L59.9513855,14.6482239 Z" transform="matrix(-1 0 0 1 140.233 0)"/>
    </g>
    <g transform="translate(196.5 96.5)">
      <polyline stroke="#79313D" stroke-width="6" points="17.5 0 2 45.25 0 91.5" stroke-linecap="round" stroke-linejoin="round" transform="matrix(-1 0 0 1 17.5 0)"/>
      <g transform="translate(8.5 89)">
        <path fill="#8F755C" d="M3.1770139,18.1805608 C11.1239019,21.8397111 16.5682097,13.2185697 16.5682097,9.6287188 C16.5682097,6.40184477 14.2168101,3.72416956 11.1339875,3.21566996 C11.1339875,3.21566996 6.89439468,3.1685765 7.22387741,7.87404577 C7.52536238,13.6971984 4.20031002,12.4955218 3.1770139,18.1805608 Z" transform="rotate(-28 9.873 11.141)"/>
        <path fill="#C0B6B1" d="M5.20632849,18.2405786 C9.42719942,20.1840816 12.9420813,18.6632596 15.3101987,16.2720033 C17.4006786,14.1610973 15.9115251,13.7395021 14.0534082,12.7515239 C12.287513,11.8125807 9.1017547,10.8234449 8.69028916,11.6858161 C7.74710872,13.6625832 5.91880458,14.2823358 5.20632849,18.2405786 Z" transform="rotate(-28 10.767 15.241)"/>
        <path fill="#8F755C" d="M8.48538542,2.47382679 C4.89553454,2.47382679 1.98538542,5.38397592 1.98538542,8.97382679 C1.98538542,11.2355057 3.14049808,13.2273937 4.89295279,14.39172 C4.89295279,14.39172 5.06009527,10.6198927 6.73312787,9.1363288 C8.40616048,7.65276488 8.48538542,2.47382679 8.48538542,2.47382679 Z" transform="rotate(15 5.235 8.433)"/>
        <path fill="#C0B6B1" d="M3.35361808,8.84296706 C2.59622168,8.68797731 1.1858483,9.30378372 1.25430873,9.68192436 C1.5750031,11.453277 2.61350566,12.9747765 4.05766708,13.9342736 C4.05766708,13.9342736 4.14739295,11.9094713 4.85340114,10.2434227 C5.11098749,9.63556666 4.44895343,9.06711093 3.35361808,8.84296706 Z" transform="rotate(15 3.08 11.376)"/>
        <rect width="15" height="6" x="1.5" fill="#79313D" rx="1.5"/>
      </g>
    </g>
    <g transform="translate(98 96.5)">
      <polyline stroke="#79313D" stroke-width="6" points="25.5 0 10 45.25 8 91.5" stroke-linecap="round" stroke-linejoin="round"/>
      <g transform="matrix(-1 0 0 1 15.5 89)">
        <path fill="#8D86A9" d="M15.3900003,25.3288447 C13.9680951,26.6805601 12.0450902,27.5100938 9.92833728,27.5100938 C5.54963751,27.5100938 2,23.9604563 2,19.5817565 C2,15.7460937 4.72379562,12.5466074 8.34266982,11.8120147 L8.34266982,6.5 L11.5140047,6.5 L11.5140047,12.0343059 C11.9474976,12.3994962 11.8957258,12.9905603 11.766104,13.643812 C8.09385231,13.8223617 5.17133491,16.8562849 5.17133491,20.5727987 C5.17133491,24.404161 9.13550355,25.9244263 12.10863,25.9244263 C13.1517622,25.9244263 14.31689,25.7372843 15.3900003,25.3288447 Z" transform="matrix(-1 0 0 1 17.39 0)"/>
        <path fill="#4C4949" d="M7.5,10.5 C10.2614237,10.5 12.5,8.26142375 12.5,5.5 C12.5,2.73857625 2.5,2.73857625 2.5,5.5 C2.5,8.26142375 4.73857625,10.5 7.5,10.5 Z"/>
        <rect width="15" height="6" fill="#79313D" rx="1.5"/>
      </g>
    </g>
    <g transform="translate(116.5 21)">
      <path fill="#000000" fill-opacity=".2" d="M44,88 C50,88 73,61 73,53 C73,45 60.0162577,34 44,34 C27.9837423,34 15,44.5 15,53 C15,61.5 38,88 44,88 Z"/>
      <path fill="#8F755C" d="M43.8423423,75 C64,60.5 75.1846847,75.5 75.1846847,52.3423423 C75.1846847,29.1846847 60.8098977,13 43.5,13 C26.1901023,13 12.5,28.1846847 12.5,52.3423423 C12.5,76.5 23.5,60.5 43.8423423,75 Z"/>
      <g transform="translate(24.5 46)">
        <path fill="#8F755C" d="M0.290432945,10.3617318 C0.130031259,9.72012503 0.377957395,8.81640039 0.853480131,8.35917237 C0.853480131,8.35917237 8.6,0 19,0 C29.4,0 37.1552048,8.36733518 37.1552048,8.36733518 C37.6217723,8.82720326 37.8713792,9.71448315 37.7095671,10.3617318 L33.2904329,28.0382682 C33.1300313,28.679875 32.6342213,29.6005143 32.1844338,30.089599 C32.1844338,30.089599 28.5694849,34.0830559 25,37.5 C21.4305151,40.9169441 20.2105073,42 19,42 C17.7916092,42 15.5,40 13,37.5 C10.5,35 5.82183871,30.0648214 5.82183871,30.0648214 C5.36794972,29.5871937 4.87137921,28.6855168 4.70956706,28.0382682 L0.290432945,10.3617318 Z"/>
        <path fill="#C0B6B1" d="M19,29.5 C21,29.5 25,32 25,37.5 C22.286643,40.1893474 20.3667648,42 19,42 C17.520101,42 15.8987171,40.4345883 13,37.5 C13,32 17,29.5 19,29.5 Z"/>
        <path stroke="#998D87" stroke-width=".5" d="M15.75 33.75L15.75 38.75M17.25 35.25L17.25 40.25M20.75 35.25L20.75 40.25M22.25 33.75L22.25 38.75" stroke-linecap="round"/>
        <path stroke="#998D87" d="M19,31.5 L19,41" stroke-linecap="round"/>
        <path fill="#000000" d="M6.01437161,21.2152079 L3.78492311,22.2548168 L4.4188505,23.6142784 L6.59301582,22.6004485 C7.67945535,24.1835765 9.78167269,24.7962832 11.5793501,23.9580125 C13.3770275,23.1197417 14.2589461,21.1155095 13.7445497,19.2656335 L50.1873937,2.27205623 L49.5534664,0.912594549 L13.0553391,17.9319508 C12.1109893,16.9229394 10.7463669,17.7261714 9.04364053,18.5201658 C7.3409142,19.3141601 5.84844038,19.8432139 6.01437161,21.2152079 Z"/>
        <path fill="#C0B6B1" d="M19,26.5 C20.3807119,26.5 21.5,26.418278 21.5,22 C21.5,17.581722 20.3807119,7 19,7 C17.6192881,7 16.5,17.581722 16.5,22 C16.5,26.418278 17.6192881,26.5 19,26.5 Z"/>
        <path stroke="#998D87" stroke-width=".5" d="M19.75,12.25 L20.25,24.75" stroke-linecap="round"/>
        <path stroke="#998D87" stroke-width=".5" d="M17.75,12.25 L18.25,24.75" stroke-linecap="round" transform="matrix(-1 0 0 1 36 0)"/>
      </g>
      <path fill="#C0B6B1" d="M71.6551557,65.472321 C75.3143386,66.7322788 81.5076199,66.0688957 82.569303,62.9855441 C83.6309861,59.9021924 79.1590333,55.5664748 75.4998504,54.306517 C71.8406674,53.0465593 70.091302,54.9418101 69.0296189,58.0251618 C67.9679358,61.1085134 67.9959728,64.2123633 71.6551557,65.472321 Z"/>
      <path fill="#C0B6B1" d="M73.7741961,48.8483677 C78.7688022,48.8483677 86.0475641,45.4366034 86.0475641,41.2279789 C86.0475641,37.0193545 78.7688022,33.6075902 73.7741961,33.6075902 C68.77959,33.6075902 67.729788,37.5535928 67.729788,41.7622172 C67.729788,45.9708417 68.77959,48.8483677 73.7741961,48.8483677 Z" transform="rotate(-11 76.889 41.228)"/>
      <path fill="#C0B6B1" d="M62.6782376,31.8087823 C67.4937197,31.8087823 74.5114397,27.087132 74.5114397,21.2626811 C74.5114397,15.4382302 67.4937197,10.7165798 62.6782376,10.7165798 C57.8627556,10.7165798 56.8506031,16.1775798 56.8506031,22.0020306 C56.8506031,27.8264815 57.8627556,31.8087823 62.6782376,31.8087823 Z" transform="rotate(-52 65.681 21.263)"/>
      <path fill="#C0B6B1" d="M39.8613129,19.3005761 C45.5309425,19.3005761 53.7934327,15.4277102 53.7934327,10.6502881 C53.7934327,5.87286589 45.5309425,2 39.8613129,2 C34.1916833,2 33,6.47930675 33,11.2567289 C33,16.0341511 34.1916833,19.3005761 39.8613129,19.3005761 Z" transform="rotate(-91 43.397 10.65)"/>
      <path fill="#C0B6B1" d="M15.433459,26.5061441 C21.1103324,26.5061441 29.3833793,23.0943798 29.3833793,18.8857553 C29.3833793,14.6771309 21.1103324,11.2653666 15.433459,11.2653666 C9.7565855,11.2653666 8.56337964,15.2113692 8.56337964,19.4199936 C8.56337964,23.6286181 9.7565855,26.5061441 15.433459,26.5061441 Z" transform="scale(-1 1) rotate(-48 0 61.5)"/>
      <path fill="#C0B6B1" d="M7.77419607,48.8483677 C12.7688022,48.8483677 20.0475641,45.4366034 20.0475641,41.2279789 C20.0475641,37.0193545 12.7688022,33.6075902 7.77419607,33.6075902 C2.77958998,33.6075902 1.72978796,37.5535928 1.72978796,41.7622172 C1.72978796,45.9708417 2.77958998,48.8483677 7.77419607,48.8483677 Z" transform="scale(-1 1) rotate(-11 0 154.311)"/>
      <path fill="#C0B6B1" d="M7.65515571,65.472321 C11.3143386,66.7322788 17.5076199,66.0688957 18.569303,62.9855441 C19.6309861,59.9021924 15.1590333,55.5664748 11.4998504,54.306517 C7.84066742,53.0465593 6.09130203,54.9418101 5.02961892,58.0251618 C3.96793581,61.1085134 3.99597278,64.2123633 7.65515571,65.472321 Z" transform="matrix(-1 0 0 1 23.152 0)"/>
      <path stroke="#988D87" stroke-width=".5" d="M5.75 62.25L16.75 58.75M9.75 63.25L17.25 60.75M8.25 59.25L15.75 56.75M4.25 39.75L18.25 43.25M7.75 37.75L18.75 40.25M6.25 43.25L17.25 46.25M14.75 13.75L24.25 24.75M19.25 14.25L25.75 22.75M14.25 18.25L22.25 26.25M43.25 1.75L43.25 19.25M39.25 5.75L40.25 18.75M47.75 5.75L46.25 18.75M69.25 16.25L61.25 25.75M71.75 21.25L65.25 28.25M63.25 15.25L59.25 23.25M84.25 39.75L70.75 42.75M79.75 36.75L70.25 39.75M80.75 62.75L71.75 58.75M80.25 59.75L72.25 57.25M78.25 64.75L70.75 60.75M80.75 45.25L71.25 45.25" stroke-linecap="round"/>
      <g transform="translate(49 64.5)">
        <ellipse cx="3" cy="2.5" fill="#000000" rx="1.5" ry="2.5"/>
        <ellipse cx="3.25" cy="1.75" fill="#FFFFFF" rx=".75" ry="1.25"/>
        <rect width="6" height="2" fill="#0D0C0C" rx="1"/>
      </g>
    </g>
  </g>
</svg>
